# xmcd
#
# Track frame offsets: 
#        150
#        23535
#        38876
#        55154
#        77624
#        100987
#        126385
#        151256
#        157021
#        179944
#        198274
#        213992
#        230091
#
# Disc length: 3138 seconds
#
# Revision: 1
# Processed by: cddbd v1.5.2PL0 Copyright (c) Steve Scherf et al.
# Submitted via: ExactAudioCopy v0.99pb5
#
DISCID=af0c400d
DTITLE=Robert Sadin - Art of Love: Music of Machaut
DYEAR=2009
DGENRE=14th c. Ars Nova - 21st c. Jazz
TTITLE0=Love without end
TTITLE1=Douce dame
TTITLE2=Natalie's song
TTITLE3=Python
TTITLE4=Amour me fait désirer
TTITLE5=Tu, meu sonho vivo
TTITLE6=Comment
TTITLE7=Brad's interlude
TTITLE8=Dame si vous m'êtes lointaine
TTITLE9=Force of Love
TTITLE10=Doux visage
TTITLE11=Hélas
TTITLE12=Evocation
EXTD=YEAR: 2009
EXTT0=
EXTT1=
EXTT2=
EXTT3=
EXTT4=
EXTT5=
EXTT6=
EXTT7=
EXTT8=
EXTT9=
EXTT10=
EXTT11=
EXTT12=
PLAYORDER=
